<svg id="Warstwa_1" data-name="Warstwa 1" xmlns="http://www.w3.org/2000/svg" viewBox="0 0 1707.77 244.37"><defs><style>.cls-1{fill:#7038ff;}.cls-2{fill:#1d1d1b;}</style></defs><path d="M36.2,240.61H8q-8,0-8-9.4V28.79q0-9.7,9-9.71H54.14q9.63,0,13.62,8.15,35.86,77.09,48.16,107.47,7-17.23,46.5-108.1,3-7.51,11.63-7.52h45.17q9,0,9,10.34V230.27q0,10.35-9.3,10.34H191q-8.64,0-8.64-10,0-131.3,1-162Q175,91.47,134.19,184.52q-3.31,7.53-12,7.52H107.29q-8.64,0-12-7.52Q62.45,112.15,44.18,67.34q1,31,1,164.19Q45.17,240.61,36.2,240.61Z"/><path d="M331.15,201.76q9,6.88,28.9,6.89,26.24,0,44.84-5.64a20.39,20.39,0,0,1,8.63-1.57c3.32,0,5.54,1.68,6.65,5q4.65,13.78,4.65,19.43T419.17,234q-20.93,10.35-63.11,10.34-44.51,0-61.95-19.27t-17.44-62.82q0-44.5,19.27-64.08t60.78-19.58q18.94,0,32.06,4.07t20.59,10.65q7.47,6.59,11.63,18.18a97.52,97.52,0,0,1,5.31,22.71,280.07,280.07,0,0,1,1.16,28.05q0,8.15-3.65,10.65-2.65,1.88-8,1.88h-94Q322.18,194.87,331.15,201.76ZM385,144.1a26.32,26.32,0,0,0,.33-5.32q0-15.67-5.81-22.56t-23.42-6.9q-18.27,0-25.58,8.15t-8,26.63Z"/><path d="M613.81,238.42q-2.32,2.19-8.31,2.19H585.24c-4,0-6.75-.42-8.3-1.25s-2.44-2.61-2.66-5.33l-.66-4.7Q559,244.06,523.13,244.06q-31.23,0-47.17-18.49T460,164.78q0-49.18,19.6-67.52t63.77-18.33q18.93,0,28.23,3.45V15.32q0-9.4,10.3-9.4H607.5q4.31,0,6.47,1.88t2.16,7.52v215Q616.13,236.23,613.81,238.42Zm-42.19-120Q564,115,546.71,115q-24.91,0-33.38,10.19t-8.47,39q0,24.12,7.47,34T538.41,208q18.6,0,28.56-6,3-2.19,3.66-4.07c.66-1.26,1-3.34,1-6.27Z"/><path d="M707.14,240.61H679.57q-8.31,0-8.31-8.77V91.78q0-9.09,8.31-9.09H707.8q8,0,8,8.77V231.84Q715.77,240.62,707.14,240.61Z"/><path d="M818.07,243.43q-57.47,0-57.46-51.39,0-26.62,19.26-38.85,15.61-9.72,52.81-9.71a280.21,280.21,0,0,1,29.24,1.25v-7.21q0-8.46-2-12.84-3.64-9.09-28.23-9.09a251.87,251.87,0,0,0-35.54,2.51,97.52,97.52,0,0,1-12,1.56q-6,0-7.64-6.26A71.39,71.39,0,0,1,774.23,94c0-4.81,2.43-7.83,7.3-9.09q22.26-6.27,56.14-6.26,43.85,0,56.8,12.53,11.28,10.65,11.29,39.17v99q0,11.28-11,11.28H875.2q-6,0-8.47-1.41t-2.82-5.48l-.67-5.64Q846.64,243.43,818.07,243.43ZM838.66,172q-21.25,0-29.56,5.64-6.32,4.4-6.31,13.79,0,9.71,6,14.57t20.93,4.85q17.59,0,26.24-5.64c2.43-1.46,4-3,4.65-4.7a25.81,25.81,0,0,0,1.33-9.08V172.93Q851.95,172,838.66,172Z"/><path class="cls-1" d="M702.81,23.64c-6-8.73-9.29-22.2-9.29-22.2s-3.25,13.47-9.29,22.2c-8.28,9.25-15.86,11.87-15.86,11.87s11.15,5.18,15.39,11.14c6.73,9,9.76,23.27,9.76,23.27s3-14.31,9.76-23.27c4.24-6,15.38-11.14,15.38-11.14S711.09,32.89,702.81,23.64Z"/><path class="cls-1" d="M1026.22,239.94q-10.31,0-10.3-9.72V28.43q0-9.7,9.63-9.71H1084a332.27,332.27,0,0,1,35.87,1.88q28.57,2.82,42.35,15.82T1176,73.55q0,20.37-8.31,32.59T1141.47,124q20.92,4.69,31.39,17.08t10.47,34.62q0,44.49-33.55,57-19.26,7.2-67.76,7.21Zm60.45-132.23q21.58,0,26.9-2.2,16.28-6,16.28-24.12,0-11.91-4.82-16.77T1110.58,57q-7.3-2.21-26.9-2.2h-21.92v53Zm-1,95.25q23.58,0,33.55-3.45,17.27-5.94,17.27-27.88,0-18.81-17.6-25.07-7.65-2.82-30.23-2.82h-26.9V203Z"/><path class="cls-1" d="M1266.35,240.25h-27.57q-8.29,0-8.3-8.77V14.33q0-8.77,8.64-8.77H1267q8,0,8,8.77V231.48Q1275,240.24,1266.35,240.25Z"/><path class="cls-1" d="M1365.66,240.25h-27.57q-8.29,0-8.3-8.77V91.41q0-9.09,8.3-9.08h28.24q8,0,8,8.77V231.48Q1374.3,240.24,1365.66,240.25Z"/><path class="cls-1" d="M1538.05,162.54q9.63,10.34,9.63,32,0,49.51-69.09,49.51-38.86,0-57.79-7.52-6.32-2.19-6.32-8.15,0-6.57,4.32-21.3,2-6,8.64-6a39.32,39.32,0,0,1,9.3,1.57,170.18,170.18,0,0,0,43.84,5.64q14.28,0,19.27-3.45a11.43,11.43,0,0,0,5-10q0-5.64-3.65-8.46t-16-5.63l-24.24-5q-21.6-4.38-32.22-15.2t-10.63-32.43q0-49.5,68.09-49.5,32.22,0,48.83,4.7,6.63,2.19,6.64,8.14,0,7.53-4,21.94-1.65,5.33-7,5.32a62.76,62.76,0,0,1-8.64-.94,210.7,210.7,0,0,0-36.2-3.44q-14,0-19.1,3a10,10,0,0,0-5.15,9.25q0,6,3.65,9.08t16.28,6l22.59,5.32Q1528.41,152.21,1538.05,162.54Z"/><path class="cls-1" d="M1698.14,162.54q9.63,10.34,9.63,32,0,49.51-69.09,49.51-38.87,0-57.79-7.52-6.32-2.19-6.31-8.15,0-6.57,4.31-21.3,2-6,8.64-6a39.32,39.32,0,0,1,9.3,1.57,170.24,170.24,0,0,0,43.84,5.64q14.3,0,19.27-3.45a11.43,11.43,0,0,0,5-10q0-5.64-3.65-8.46t-16-5.63l-24.24-5q-21.6-4.38-32.22-15.2t-10.63-32.43q0-49.5,68.09-49.5,32.22,0,48.83,4.7,6.64,2.19,6.64,8.14,0,7.53-4,21.94-1.65,5.33-7,5.32a62.76,62.76,0,0,1-8.64-.94,210.7,210.7,0,0,0-36.2-3.44q-14,0-19.1,3a10,10,0,0,0-5.15,9.25q0,6,3.66,9.08t16.27,6l22.59,5.32Q1688.5,152.21,1698.14,162.54Z"/><path class="cls-2" d="M1361.33,22.2C1355.29,13.48,1352,0,1352,0s-3.24,13.48-9.28,22.2c-8.29,9.26-15.86,11.87-15.86,11.87s11.14,5.19,15.39,11.14c6.72,9,9.75,23.28,9.75,23.28s3-14.32,9.76-23.28c4.25-6,15.39-11.14,15.39-11.14S1369.62,31.46,1361.33,22.2Z"/></svg>