<?xml version="1.0" encoding="utf-8"?>
<!-- Generator: Adobe Illustrator 24.3.0, SVG Export Plug-In . SVG Version: 6.00 Build 0)  -->
<svg version="1.0" id="Warstwa_1" xmlns="http://www.w3.org/2000/svg" xmlns:xlink="http://www.w3.org/1999/xlink" x="0px" y="0px"
	 viewBox="0 0 1707.77 244.37" style="enable-background:new 0 0 1707.77 244.37;" xml:space="preserve">
<style type="text/css">
	.st0{fill:#FFFFFF;}
	.st1{fill:url(#SVGID_1_);}
</style>
<g>
	<path class="st0" d="M36.2,240.61H7.97c-5.31,0-7.97-3.13-7.97-9.4V28.79c0-6.48,2.99-9.71,8.97-9.71h45.17
		c6.42,0,10.96,2.72,13.62,8.15c23.92,51.39,39.97,87.21,48.16,107.48c4.65-11.49,20.15-47.52,46.5-108.1
		c1.99-5.01,5.87-7.52,11.62-7.52h45.17c5.98,0,8.97,3.45,8.97,10.34v200.85c0,6.89-3.1,10.34-9.3,10.34h-27.9
		c-5.76,0-8.64-3.34-8.64-10.03c0-87.53,0.33-141.52,1-162c-5.54,15.25-21.92,53.89-49.16,115.94c-2.21,5.01-6.2,7.52-11.96,7.52
		h-14.95c-5.76,0-9.74-2.51-11.96-7.52C73.41,136.27,56.35,97.21,44.18,67.34c0.67,20.68,1,75.41,1,164.19
		C45.17,237.58,42.18,240.61,36.2,240.61z"/>
	<path class="st0" d="M331.15,201.76c5.98,4.6,15.61,6.89,28.9,6.89c17.49,0,32.44-1.88,44.84-5.64c2.21-1.04,5.09-1.57,8.64-1.57
		c3.32,0,5.54,1.67,6.64,5.01c3.1,9.19,4.65,15.67,4.65,19.43s-1.88,6.48-5.65,8.15c-13.95,6.89-34.99,10.34-63.11,10.34
		c-29.67,0-50.32-6.42-61.95-19.27c-11.63-12.85-17.44-33.79-17.44-62.82c0-29.66,6.42-51.02,19.26-64.08
		c12.84-13.06,33.1-19.58,60.78-19.58c12.62,0,23.31,1.36,32.05,4.07c8.75,2.72,15.61,6.27,20.59,10.65s8.86,10.44,11.62,18.17
		c2.77,7.73,4.54,15.3,5.31,22.72c0.78,7.42,1.16,16.76,1.16,28.04c0,5.43-1.22,8.98-3.65,10.65c-1.77,1.25-4.43,1.88-7.97,1.88h-94
		C322.07,188.18,325.17,197.16,331.15,201.76z M384.96,144.1c0.22-0.84,0.33-2.61,0.33-5.33c0-10.44-1.94-17.96-5.81-22.56
		s-11.68-6.89-23.42-6.89c-12.18,0-20.7,2.72-25.58,8.15c-4.87,5.43-7.53,14.31-7.97,26.63H384.96z"/>
	<path class="st0" d="M613.81,238.42c-1.55,1.46-4.32,2.19-8.3,2.19h-20.26c-3.99,0-6.75-0.42-8.3-1.25s-2.44-2.61-2.66-5.33
		l-0.66-4.7c-9.74,9.82-26.57,14.73-50.49,14.73c-20.82,0-36.54-6.16-47.17-18.49s-15.94-32.59-15.94-60.79
		c0-32.8,6.53-55.3,19.6-67.52c13.06-12.22,34.32-18.33,63.77-18.33c12.62,0,22.03,1.15,28.23,3.45V15.32c0-6.27,3.43-9.4,10.3-9.4
		h25.58c2.88,0,5.04,0.63,6.48,1.88s2.16,3.76,2.16,7.52v214.95C616.13,234.24,615.36,236.96,613.81,238.42z M571.62,118.41
		c-5.09-2.3-13.4-3.45-24.91-3.45c-16.61,0-27.74,3.39-33.38,10.18s-8.47,19.79-8.47,39.01c0,16.08,2.49,27.42,7.47,34
		s13.67,9.87,26.07,9.87s21.92-1.98,28.56-5.95c1.99-1.46,3.21-2.82,3.65-4.07c0.66-1.25,1-3.34,1-6.27V118.41z"/>
	<path class="st0" d="M707.14,240.61h-27.57c-5.54,0-8.3-2.92-8.3-8.77V91.78c0-6.06,2.77-9.09,8.3-9.09h13.95h14.28
		c5.31,0,7.97,2.92,7.97,8.77v140.38C715.77,237.69,712.89,240.61,707.14,240.61z"/>
	<path class="st0" d="M818.07,243.43c-38.31,0-57.46-17.13-57.46-51.39c0-17.76,6.42-30.71,19.27-38.85
		c10.41-6.48,28.01-9.71,52.81-9.71c11.74,0,21.48,0.42,29.23,1.25v-7.21c0-5.64-0.67-9.92-1.99-12.85
		c-2.44-6.06-11.85-9.09-28.23-9.09c-11.96,0-23.8,0.84-35.54,2.51c-6.2,1.04-10.19,1.57-11.96,1.57c-3.99,0-6.53-2.09-7.64-6.27
		c-1.55-5.43-2.33-11.91-2.33-19.43c0-4.8,2.44-7.83,7.31-9.09c14.84-4.18,33.55-6.27,56.13-6.27c29.23,0,48.16,4.18,56.8,12.53
		c7.53,7.1,11.29,20.16,11.29,39.17v99.02c0,7.52-3.65,11.28-10.96,11.28h-19.6c-3.99,0-6.81-0.47-8.47-1.41
		c-1.66-0.94-2.6-2.77-2.82-5.48l-0.66-5.64C852.17,238.31,837.11,243.43,818.07,243.43z M838.66,171.99
		c-14.17,0-24.03,1.88-29.56,5.64c-4.21,2.92-6.31,7.52-6.31,13.79c0,6.48,1.99,11.33,5.98,14.57c3.99,3.24,10.96,4.86,20.92,4.86
		c11.74,0,20.48-1.88,26.24-5.64c2.44-1.46,3.99-3.03,4.65-4.7c0.89-2.3,1.33-5.33,1.33-9.09v-18.49
		C855.27,172.3,847.52,171.99,838.66,171.99z"/>
	<linearGradient id="SVGID_1_" gradientUnits="userSpaceOnUse" x1="1015.4304" y1="379.2431" x2="1406.7211" y2="-201.3831">
		<stop  offset="0.2123" style="stop-color:#7038FF"/>
		<stop  offset="0.5912" style="stop-color:#BC1AFF"/>
		<stop  offset="0.8646" style="stop-color:#EC07FF"/>
		<stop  offset="1" style="stop-color:#FF00FF"/>
	</linearGradient>
	<path class="st1" d="M718.66,35.51c0,0-11.14,5.19-15.39,11.14c-6.73,8.96-9.76,23.27-9.76,23.27s-3.03-14.31-9.76-23.27
		c-4.24-5.96-15.39-11.14-15.39-11.14s7.57-2.61,15.86-11.87c6.04-8.72,9.29-22.2,9.29-22.2s3.24,13.48,9.29,22.2
		C711.09,32.89,718.66,35.51,718.66,35.51z M1082.02,239.94c32.33,0,54.92-2.4,67.76-7.21c22.37-8.36,33.55-27.36,33.55-57.03
		c0-14.83-3.49-26.37-10.46-34.62c-6.98-8.25-17.44-13.94-31.39-17.08c11.96-3.76,20.7-9.71,26.24-17.86
		c5.54-8.15,8.3-19.01,8.3-32.59c0-16.08-4.59-28.46-13.78-37.13s-23.31-13.94-42.35-15.82c-11.51-1.25-23.47-1.88-35.87-1.88
		h-58.46c-6.42,0-9.63,3.24-9.63,9.71v201.79c0,6.48,3.43,9.71,10.3,9.71H1082.02z M1061.76,107.71V54.75h21.92
		c13.06,0,22.03,0.73,26.9,2.19c6.42,1.88,11.24,4.44,14.45,7.68c3.21,3.24,4.82,8.83,4.82,16.76c0,12.12-5.43,20.16-16.28,24.13
		c-3.54,1.46-12.51,2.19-26.9,2.19H1061.76z M1061.76,202.96v-59.22h26.9c15.06,0,25.13,0.94,30.23,2.82
		c11.74,4.18,17.6,12.53,17.6,25.07c0,14.62-5.76,23.92-17.27,27.89c-6.64,2.3-17.83,3.45-33.55,3.45H1061.76z M1274.99,231.48
		V14.33c0-5.85-2.66-8.77-7.97-8.77h-27.9c-5.76,0-8.64,2.92-8.64,8.77v217.14c0,5.85,2.77,8.77,8.3,8.77h27.57
		C1272.11,240.25,1274.99,237.32,1274.99,231.48z M1374.3,231.48V91.1c0-5.85-2.66-8.77-7.97-8.77h-14.28h-13.95
		c-5.54,0-8.3,3.03-8.3,9.09v140.06c0,5.85,2.77,8.77,8.3,8.77h27.57C1371.42,240.25,1374.3,237.32,1374.3,231.48z M1504.17,146.87
		l-22.59-5.33c-8.42-1.88-13.84-3.86-16.28-5.95s-3.65-5.12-3.65-9.09c0-4.18,1.72-7.26,5.15-9.24c3.43-1.99,9.8-2.98,19.1-2.98
		c11.07,0,23.14,1.15,36.2,3.45c3.99,0.63,6.86,0.94,8.64,0.94c3.54,0,5.87-1.78,6.98-5.33c2.66-9.61,3.99-16.92,3.99-21.93
		c0-3.97-2.21-6.68-6.64-8.15c-11.07-3.13-27.35-4.7-48.83-4.7c-45.39,0-68.09,16.5-68.09,49.51c0,14.41,3.54,25.22,10.63,32.43
		s17.83,12.27,32.22,15.2l24.25,5.01c8.19,1.88,13.51,3.76,15.94,5.64c2.44,1.88,3.65,4.7,3.65,8.46c0,4.39-1.66,7.73-4.98,10.03
		s-9.74,3.45-19.26,3.45c-15.06,0-29.67-1.88-43.84-5.64c-3.99-1.04-7.09-1.57-9.3-1.57c-4.43,0-7.31,1.99-8.64,5.95
		c-2.88,9.82-4.32,16.92-4.32,21.31c0,3.97,2.1,6.68,6.31,8.15c12.62,5.01,31.89,7.52,57.79,7.52c46.06,0,69.09-16.5,69.09-49.51
		c0-14.41-3.21-25.07-9.63-31.96S1520.33,150.43,1504.17,146.87z M1664.26,146.87l-22.59-5.33c-8.42-1.88-13.84-3.86-16.28-5.95
		c-2.44-2.09-3.65-5.12-3.65-9.09c0-4.18,1.72-7.26,5.15-9.24c3.43-1.99,9.8-2.98,19.1-2.98c11.07,0,23.14,1.15,36.21,3.45
		c3.99,0.63,6.86,0.94,8.64,0.94c3.54,0,5.87-1.78,6.98-5.33c2.66-9.61,3.99-16.92,3.99-21.93c0-3.97-2.21-6.68-6.64-8.15
		c-11.07-3.13-27.35-4.7-48.83-4.7c-45.39,0-68.09,16.5-68.09,49.51c0,14.41,3.54,25.22,10.63,32.43s17.83,12.27,32.22,15.2
		l24.25,5.01c8.19,1.88,13.51,3.76,15.94,5.64s3.65,4.7,3.65,8.46c0,4.39-1.66,7.73-4.98,10.03c-3.32,2.3-9.74,3.45-19.27,3.45
		c-15.06,0-29.67-1.88-43.84-5.64c-3.99-1.04-7.09-1.57-9.3-1.57c-4.43,0-7.31,1.99-8.64,5.95c-2.88,9.82-4.32,16.92-4.32,21.31
		c0,3.97,2.1,6.68,6.31,8.15c12.62,5.01,31.89,7.52,57.79,7.52c46.06,0,69.09-16.5,69.09-49.51c0-14.41-3.21-25.07-9.63-31.96
		S1680.42,150.43,1664.26,146.87z"/>
	<path class="st0" d="M1361.33,22.2c-6.04-8.72-9.29-22.2-9.29-22.2s-3.24,13.48-9.29,22.2c-8.28,9.26-15.86,11.87-15.86,11.87
		s11.14,5.19,15.39,11.14c6.73,8.96,9.76,23.27,9.76,23.27s3.03-14.31,9.76-23.27c4.24-5.96,15.39-11.14,15.39-11.14
		S1369.62,31.46,1361.33,22.2z"/>
</g>
<g>
</g>
<g>
</g>
<g>
</g>
<g>
</g>
<g>
</g>
<g>
</g>
</svg>
