<svg id="Warstwa_1" data-name="Warstwa 1" xmlns="http://www.w3.org/2000/svg" viewBox="0 0 1997.84 1061.59"><defs><style>.cls-1{fill:#7038ff;}.cls-2{fill:#1d1d1b;}</style></defs><path d="M940.19,344.26H755.06v.18a35.91,35.91,0,0,0-3.61-.18,37.91,37.91,0,0,0,0,75.81,35.91,35.91,0,0,0,3.61-.18v.18h94.13l-199.3,199.3L528.76,498.25l0,0a37.9,37.9,0,0,0-55.93,0l0,0L215.2,755.83a37.9,37.9,0,1,0,53.6,53.6h0l232-232L623.08,699.78a37.91,37.91,0,0,0,53.85-.25h0L902.29,474.19v98.2a37.91,37.91,0,0,0,75.81,0V382.17A37.91,37.91,0,0,0,940.19,344.26Z"/><path d="M77.72,730.11V334C77.72,193,193,77.72,334,77.72h710.1c99.1,0,185.52,57,228.12,139.83h85.86C1312.51,91.07,1191.09,0,1049.42,0H327.89C147.55,0,0,147.55,0,327.89V733.7A325.51,325.51,0,0,0,55.45,915.58l57-57A254.19,254.19,0,0,1,77.72,730.11Z"/><path d="M1044.09,986.39H334A255.24,255.24,0,0,1,160.21,918l-55.4,55.41c58.63,54.61,137.12,88.15,223.08,88.15h721.53c136.21,0,253.69-84.18,303-203.08h-86.82C1221.12,934.82,1138.34,986.39,1044.09,986.39Z"/><path d="M1128.28,501.87h-28.23q-8,0-8-9.4V290.05q0-9.72,9-9.71h45.18q9.63,0,13.62,8.14Q1195.71,365.57,1208,396q7-17.23,46.5-108.1,3-7.53,11.62-7.52h45.18q9,0,9,10.34V491.53q0,10.34-9.3,10.34h-27.91q-8.62,0-8.63-10,0-131.29,1-162-8.31,22.88-49.16,115.94-3.33,7.52-12,7.52h-15q-8.62,0-12-7.52-32.88-72.37-51.15-117.19,1,31,1,164.19Q1137.25,501.87,1128.28,501.87Z"/><path d="M1423.23,463q9,6.9,28.89,6.9,26.25,0,44.84-5.64a20.31,20.31,0,0,1,8.64-1.57q5,0,6.64,5,4.65,13.79,4.65,19.43t-5.64,8.15q-20.94,10.33-63.11,10.34-44.52,0-62-19.27t-17.44-62.83q0-44.49,19.27-64.07t60.78-19.59q18.93,0,32,4.07t20.6,10.66q7.47,6.57,11.62,18.17a97.51,97.51,0,0,1,5.32,22.72,279.71,279.71,0,0,1,1.16,28q0,8.14-3.65,10.66c-1.78,1.25-4.43,1.88-8,1.88h-94Q1414.27,456.13,1423.23,463Zm53.8-57.65a25.44,25.44,0,0,0,.34-5.33q0-15.66-5.82-22.56t-23.41-6.89q-18.27,0-25.58,8.15t-8,26.63Z"/><path d="M1705.88,499.67q-2.33,2.2-8.3,2.2h-20.26q-6,0-8.31-1.26c-1.55-.83-2.43-2.61-2.65-5.32l-.67-4.7q-14.61,14.73-50.48,14.72-31.23,0-47.17-18.48T1552.1,426q0-49.2,19.59-67.53t63.78-18.33q18.93,0,28.23,3.45V276.58q0-9.4,10.3-9.4h25.57c2.88,0,5,.62,6.48,1.88s2.16,3.76,2.16,7.52v215Q1708.21,497.49,1705.88,499.67Zm-42.18-120q-7.64-3.45-24.91-3.45-24.91,0-33.38,10.18t-8.47,39q0,24.13,7.47,34t26.07,9.87q18.6,0,28.57-5.95c2-1.47,3.21-2.82,3.65-4.08q1-1.87,1-6.26Z"/><path d="M1799.21,501.87h-27.57q-8.3,0-8.3-8.78V353q0-9.09,8.3-9.09h28.24q8,0,8,8.78V493.09Q1807.85,501.87,1799.21,501.87Z"/><path d="M1910.15,504.69q-57.47,0-57.47-51.39,0-26.64,19.27-38.85,15.61-9.72,52.81-9.72A279.51,279.51,0,0,1,1954,406v-7.21q0-8.46-2-12.85-3.66-9.09-28.23-9.08a251.86,251.86,0,0,0-35.54,2.5,96.24,96.24,0,0,1-12,1.57q-6,0-7.64-6.27a71.31,71.31,0,0,1-2.33-19.43q0-7.2,7.31-9.08,22.26-6.27,56.13-6.27,43.85,0,56.8,12.53,11.3,10.67,11.3,39.17v99q0,11.28-11,11.28h-19.6q-6,0-8.47-1.41T1956,495l-.66-5.64Q1938.72,504.69,1910.15,504.69Zm20.59-71.44q-21.26,0-29.56,5.64-6.32,4.38-6.31,13.78,0,9.72,6,14.57t20.92,4.86q17.61,0,26.24-5.64,3.66-2.19,4.65-4.7a25.67,25.67,0,0,0,1.33-9.09V434.19Q1944,433.25,1930.74,433.25Z"/><path class="cls-1" d="M1102.37,798.73q-10.29,0-10.29-9.72V587.22q0-9.71,9.63-9.71h58.46a332.27,332.27,0,0,1,35.87,1.88q28.56,2.82,42.35,15.82t13.78,37.13q0,20.37-8.3,32.59t-26.24,17.86q20.92,4.69,31.39,17.08t10.46,34.62q0,44.5-33.55,57-19.26,7.2-67.75,7.21Zm60.46-132.23q21.59,0,26.9-2.2,16.27-5.94,16.28-24.12,0-11.91-4.82-16.77t-14.45-7.67q-7.31-2.21-26.9-2.2h-21.93v53Zm-1,95.25q23.58,0,33.55-3.44,17.26-6,17.27-27.89,0-18.81-17.61-25.07-7.63-2.82-30.22-2.82h-26.91v59.22Z"/><path class="cls-1" d="M1342.51,799h-27.57q-8.3,0-8.3-8.77V573.12q0-8.77,8.63-8.77h27.9q8,0,8,8.77V790.27Q1351.15,799,1342.51,799Z"/><path class="cls-1" d="M1441.82,799h-27.57q-8.31,0-8.3-8.77V650.2q0-9.08,8.3-9.08h28.23q8,0,8,8.77V790.27Q1450.46,799,1441.82,799Z"/><path class="cls-1" d="M1614.2,721.33q9.63,10.35,9.63,32,0,49.51-69.08,49.51-38.87,0-57.8-7.52-6.3-2.19-6.31-8.15,0-6.57,4.32-21.3,2-6,8.64-6a39.32,39.32,0,0,1,9.3,1.57,170.18,170.18,0,0,0,43.84,5.64q14.28,0,19.26-3.45c3.33-2.29,5-5.64,5-10q0-5.64-3.66-8.46t-15.94-5.64l-24.25-5q-21.59-4.38-32.22-15.19t-10.63-32.44q0-49.5,68.1-49.5,32.22,0,48.82,4.7,6.64,2.19,6.65,8.14,0,7.53-4,21.94-1.66,5.33-7,5.32a62.66,62.66,0,0,1-8.63-.94,210.81,210.81,0,0,0-36.21-3.44q-14,0-19.09,3a9.94,9.94,0,0,0-5.15,9.25q0,6,3.65,9.08t16.28,6l22.58,5.33Q1604.58,711,1614.2,721.33Z"/><path class="cls-1" d="M1774.29,721.33q9.63,10.35,9.64,32,0,49.51-69.09,49.51-38.86,0-57.8-7.52-6.3-2.19-6.31-8.15,0-6.57,4.32-21.3,2-6,8.64-6a39.32,39.32,0,0,1,9.3,1.57,170.18,170.18,0,0,0,43.84,5.64q14.28,0,19.27-3.45a11.42,11.42,0,0,0,5-10q0-5.64-3.66-8.46t-15.94-5.64l-24.25-5q-21.59-4.38-32.22-15.19t-10.62-32.44q0-49.5,68.09-49.5,32.22,0,48.82,4.7,6.65,2.19,6.65,8.14,0,7.53-4,21.94-1.67,5.33-7,5.32a62.61,62.61,0,0,1-8.64-.94,210.72,210.72,0,0,0-36.21-3.44q-14,0-19.09,3a9.94,9.94,0,0,0-5.15,9.25q0,6,3.65,9.08t16.28,6l22.58,5.33Q1764.67,711,1774.29,721.33Z"/><path class="cls-2" d="M1437.49,581c-6-8.72-9.29-22.2-9.29-22.2s-3.24,13.48-9.29,22.2c-8.28,9.26-15.85,11.87-15.85,11.87s11.14,5.19,15.38,11.15c6.73,9,9.76,23.27,9.76,23.27s3-14.32,9.76-23.27c4.24-6,15.39-11.15,15.39-11.15S1445.77,590.25,1437.49,581Z"/><path class="cls-1" d="M1794.88,284.89c-6-8.72-9.28-22.2-9.28-22.2s-3.25,13.48-9.29,22.2c-8.29,9.26-15.86,11.87-15.86,11.87s11.14,5.19,15.39,11.15c6.72,8.95,9.76,23.27,9.76,23.27s3-14.32,9.75-23.27c4.25-6,15.39-11.15,15.39-11.15S1803.17,294.15,1794.88,284.89Z"/></svg>