<?xml version="1.0" encoding="utf-8"?>
<!-- Generator: Adobe Illustrator 24.3.0, SVG Export Plug-In . SVG Version: 6.00 Build 0)  -->
<svg version="1.0" id="Warstwa_1" xmlns="http://www.w3.org/2000/svg" xmlns:xlink="http://www.w3.org/1999/xlink" x="0px" y="0px"
	 viewBox="0 0 1997.83 1061.59" style="enable-background:new 0 0 1997.83 1061.59;" xml:space="preserve">
<style type="text/css">
	.st0{fill:#FFFFFF;}
	.st1{fill:url(#SVGID_1_);}
</style>
<path class="st0" d="M940.19,344.26H755.06v0.18c-1.19-0.11-2.39-0.18-3.61-0.18c-20.93,0-37.9,16.97-37.9,37.9
	c0,20.93,16.97,37.9,37.9,37.9c1.22,0,2.42-0.06,3.61-0.18v0.18h94.13l-199.3,199.3L528.76,498.25l-0.03,0.03
	c-6.93-7.57-16.89-12.32-27.96-12.32c-11.07,0-21.03,4.75-27.96,12.32l-0.03-0.03L215.2,755.83c-6.86,6.86-11.1,16.34-11.1,26.8
	c0,20.93,16.97,37.9,37.9,37.9c10.47,0,19.94-4.24,26.8-11.1l0,0l231.97-231.97l122.31,122.31c6.86,6.86,16.34,11.1,26.8,11.1
	c10.59,0,20.16-4.35,27.04-11.35l0.01,0.01l225.35-225.35v98.2c0,20.93,16.97,37.9,37.9,37.9c20.93,0,37.9-16.97,37.9-37.9V382.17
	C978.1,361.23,961.13,344.26,940.19,344.26z"/>
<g>
	<path class="st0" d="M77.72,730.11V333.99c0-140.95,115.33-256.28,256.28-256.28h710.1c99.1,0,185.52,57,228.12,139.84h85.86
		C1312.51,91.07,1191.09,0,1049.42,0H327.89C147.55,0,0,147.55,0,327.89V733.7c0,67.15,20.47,129.74,55.45,181.87l57.02-57.02
		C90.4,820.73,77.72,776.83,77.72,730.11z"/>
	<path class="st0" d="M1044.09,986.39h-710.1c-66.9,0-128.02-25.99-173.78-68.36l-55.41,55.41
		c58.63,54.62,137.12,88.16,223.08,88.16h721.53c136.21,0,253.69-84.18,303.04-203.08h-86.82
		C1221.12,934.82,1138.34,986.39,1044.09,986.39z"/>
</g>
<path class="st0" d="M1128.28,501.87h-28.23c-5.31,0-7.97-3.13-7.97-9.4V290.05c0-6.48,2.99-9.71,8.97-9.71h45.17
	c6.42,0,10.96,2.72,13.62,8.15c23.92,51.39,39.97,87.21,48.16,107.48c4.65-11.49,20.15-47.52,46.5-108.1
	c1.99-5.01,5.87-7.52,11.62-7.52h45.17c5.98,0,8.97,3.45,8.97,10.34v200.85c0,6.89-3.1,10.34-9.3,10.34h-27.9
	c-5.76,0-8.64-3.34-8.64-10.03c0-87.53,0.33-141.52,1-162c-5.54,15.25-21.92,53.89-49.16,115.94c-2.21,5.01-6.2,7.52-11.96,7.52
	h-14.95c-5.76,0-9.74-2.51-11.96-7.52c-21.92-48.25-38.97-87.32-51.15-117.19c0.67,20.68,1,75.41,1,164.19
	C1137.25,498.84,1134.26,501.87,1128.28,501.87z"/>
<path class="st0" d="M1423.23,463.01c5.98,4.6,15.61,6.89,28.9,6.89c17.49,0,32.44-1.88,44.84-5.64c2.21-1.04,5.09-1.57,8.64-1.57
	c3.32,0,5.54,1.67,6.64,5.01c3.1,9.19,4.65,15.67,4.65,19.43s-1.88,6.48-5.65,8.15c-13.95,6.89-34.99,10.34-63.11,10.34
	c-29.67,0-50.32-6.42-61.95-19.27c-11.63-12.85-17.44-33.79-17.44-62.82c0-29.66,6.42-51.02,19.26-64.08
	c12.84-13.06,33.1-19.58,60.78-19.58c12.62,0,23.31,1.36,32.05,4.07c8.75,2.72,15.61,6.27,20.59,10.65s8.86,10.44,11.62,18.17
	c2.77,7.73,4.54,15.3,5.31,22.72c0.78,7.42,1.16,16.76,1.16,28.04c0,5.43-1.22,8.98-3.65,10.65c-1.77,1.25-4.43,1.88-7.97,1.88h-94
	C1414.15,449.44,1417.25,458.42,1423.23,463.01z M1477.03,405.36c0.22-0.84,0.33-2.61,0.33-5.33c0-10.44-1.94-17.96-5.81-22.56
	s-11.68-6.89-23.42-6.89c-12.18,0-20.7,2.72-25.58,8.15c-4.87,5.43-7.53,14.31-7.97,26.63H1477.03z"/>
<path class="st0" d="M1705.88,499.67c-1.55,1.46-4.32,2.19-8.3,2.19h-20.26c-3.99,0-6.75-0.42-8.3-1.25s-2.44-2.61-2.66-5.33
	l-0.66-4.7c-9.74,9.82-26.57,14.73-50.49,14.73c-20.82,0-36.54-6.16-47.17-18.49s-15.94-32.59-15.94-60.79
	c0-32.8,6.53-55.3,19.6-67.52c13.06-12.22,34.32-18.33,63.77-18.33c12.62,0,22.03,1.15,28.23,3.45v-67.05c0-6.27,3.43-9.4,10.3-9.4
	h25.58c2.88,0,5.04,0.63,6.48,1.88s2.16,3.76,2.16,7.52v214.95C1708.21,495.5,1707.43,498.21,1705.88,499.67z M1663.7,379.67
	c-5.09-2.3-13.4-3.45-24.91-3.45c-16.61,0-27.74,3.39-33.38,10.18s-8.47,19.79-8.47,39.01c0,16.08,2.49,27.42,7.47,34
	s13.67,9.87,26.07,9.87s21.92-1.98,28.56-5.95c1.99-1.46,3.21-2.82,3.65-4.07c0.66-1.25,1-3.34,1-6.27V379.67z"/>
<path class="st0" d="M1799.21,501.87h-27.57c-5.54,0-8.3-2.92-8.3-8.77V353.03c0-6.06,2.77-9.09,8.3-9.09h13.95h14.28
	c5.31,0,7.97,2.92,7.97,8.77v140.38C1807.85,498.94,1804.97,501.87,1799.21,501.87z"/>
<path class="st0" d="M1910.15,504.69c-38.31,0-57.46-17.13-57.46-51.39c0-17.76,6.42-30.71,19.27-38.85
	c10.41-6.48,28.01-9.71,52.81-9.71c11.74,0,21.48,0.42,29.23,1.25v-7.21c0-5.64-0.67-9.92-1.99-12.85
	c-2.44-6.06-11.85-9.09-28.23-9.09c-11.96,0-23.8,0.84-35.54,2.51c-6.2,1.04-10.19,1.57-11.96,1.57c-3.99,0-6.53-2.09-7.64-6.27
	c-1.55-5.43-2.33-11.91-2.33-19.43c0-4.8,2.44-7.83,7.31-9.09c14.84-4.18,33.55-6.27,56.13-6.27c29.23,0,48.16,4.18,56.8,12.53
	c7.53,7.1,11.29,20.16,11.29,39.17v99.02c0,7.52-3.65,11.28-10.96,11.28h-19.6c-3.99,0-6.81-0.47-8.47-1.41
	c-1.66-0.94-2.6-2.77-2.82-5.48l-0.66-5.64C1944.25,499.57,1929.19,504.69,1910.15,504.69z M1930.74,433.25
	c-14.17,0-24.03,1.88-29.56,5.64c-4.21,2.92-6.31,7.52-6.31,13.79c0,6.48,1.99,11.33,5.98,14.57c3.99,3.24,10.96,4.86,20.92,4.86
	c11.74,0,20.48-1.88,26.24-5.64c2.44-1.46,3.99-3.03,4.65-4.7c0.89-2.3,1.33-5.33,1.33-9.09v-18.49
	C1947.35,433.56,1939.6,433.25,1930.74,433.25z"/>
<path class="st0" d="M1437.49,580.99c-6.04-8.72-9.29-22.2-9.29-22.2s-3.24,13.48-9.29,22.2c-8.28,9.26-15.86,11.87-15.86,11.87
	s11.14,5.19,15.39,11.14c6.73,8.96,9.76,23.27,9.76,23.27s3.03-14.31,9.76-23.27c4.24-5.96,15.39-11.14,15.39-11.14
	S1445.77,590.25,1437.49,580.99z"/>
<linearGradient id="SVGID_1_" gradientUnits="userSpaceOnUse" x1="1275.127" y1="918.0386" x2="1738.2677" y2="230.7963">
	<stop  offset="0.21" style="stop-color:#7038FF"/>
	<stop  offset="0.5922" style="stop-color:#BD1AFF"/>
	<stop  offset="0.8649" style="stop-color:#ED07FF"/>
	<stop  offset="1" style="stop-color:#FF00FF"/>
</linearGradient>
<path class="st1" d="M1102.37,798.73c-6.86,0-10.3-3.24-10.3-9.71V587.22c0-6.48,3.21-9.71,9.63-9.71h58.46
	c12.4,0,24.36,0.63,35.87,1.88c19.04,1.88,33.16,7.16,42.35,15.82s13.78,21.05,13.78,37.13c0,13.58-2.77,24.44-8.3,32.59
	c-5.54,8.15-14.28,14.1-26.24,17.86c13.95,3.13,24.41,8.83,31.39,17.08c6.97,8.25,10.46,19.79,10.46,34.62
	c0,29.66-11.18,48.67-33.55,57.03c-12.84,4.8-35.43,7.21-67.76,7.21H1102.37z M1162.83,666.5c14.39,0,23.36-0.73,26.9-2.19
	c10.85-3.97,16.28-12.01,16.28-24.13c0-7.94-1.61-13.53-4.82-16.76c-3.21-3.24-8.03-5.8-14.45-7.68c-4.87-1.46-13.84-2.19-26.9-2.19
	h-21.92v52.95H1162.83z M1161.83,761.75c15.72,0,26.9-1.15,33.55-3.45c11.51-3.97,17.27-13.26,17.27-27.89
	c0-12.53-5.87-20.89-17.6-25.07c-5.09-1.88-15.17-2.82-30.23-2.82h-26.9v59.22H1161.83z M1342.51,799.04h-27.57
	c-5.54,0-8.3-2.92-8.3-8.77V573.12c0-5.85,2.88-8.77,8.64-8.77h27.9c5.31,0,7.97,2.92,7.97,8.77v217.14
	C1351.15,796.12,1348.27,799.04,1342.51,799.04z M1441.82,799.04h-27.57c-5.54,0-8.3-2.92-8.3-8.77V650.2c0-6.06,2.77-9.09,8.3-9.09
	h13.95h14.28c5.31,0,7.97,2.92,7.97,8.77v140.38C1450.46,796.12,1447.58,799.04,1441.82,799.04z M1614.2,721.33
	c6.42,6.89,9.63,17.55,9.63,31.96c0,33.01-23.03,49.51-69.09,49.51c-25.91,0-45.17-2.51-57.79-7.52c-4.21-1.46-6.31-4.18-6.31-8.15
	c0-4.39,1.44-11.49,4.32-21.31c1.33-3.97,4.21-5.95,8.64-5.95c2.21,0,5.31,0.52,9.3,1.57c14.17,3.76,28.79,5.64,43.84,5.64
	c9.52,0,15.94-1.15,19.26-3.45s4.98-5.64,4.98-10.03c0-3.76-1.22-6.58-3.65-8.46c-2.44-1.88-7.75-3.76-15.94-5.64l-24.25-5.01
	c-14.39-2.92-25.13-7.99-32.22-15.2s-10.63-18.02-10.63-32.43c0-33,22.7-49.51,68.09-49.51c21.48,0,37.75,1.57,48.83,4.7
	c4.43,1.46,6.64,4.18,6.64,8.15c0,5.01-1.33,12.32-3.99,21.93c-1.11,3.55-3.43,5.33-6.98,5.33c-1.77,0-4.65-0.31-8.64-0.94
	c-13.06-2.3-25.13-3.45-36.2-3.45c-9.3,0-15.67,0.99-19.1,2.98c-3.43,1.98-5.15,5.07-5.15,9.24c0,3.97,1.22,7,3.65,9.09
	s7.86,4.07,16.28,5.95l22.59,5.33C1596.49,709.22,1607.78,714.44,1614.2,721.33z M1774.29,721.33c6.42,6.89,9.63,17.55,9.63,31.96
	c0,33.01-23.03,49.51-69.09,49.51c-25.91,0-45.17-2.51-57.79-7.52c-4.21-1.46-6.31-4.18-6.31-8.15c0-4.39,1.44-11.49,4.32-21.31
	c1.33-3.97,4.21-5.95,8.64-5.95c2.21,0,5.31,0.52,9.3,1.57c14.17,3.76,28.79,5.64,43.84,5.64c9.52,0,15.94-1.15,19.27-3.45
	c3.32-2.3,4.98-5.64,4.98-10.03c0-3.76-1.22-6.58-3.65-8.46s-7.75-3.76-15.94-5.64l-24.25-5.01c-14.39-2.92-25.13-7.99-32.22-15.2
	s-10.63-18.02-10.63-32.43c0-33,22.7-49.51,68.09-49.51c21.48,0,37.75,1.57,48.83,4.7c4.43,1.46,6.64,4.18,6.64,8.15
	c0,5.01-1.33,12.32-3.99,21.93c-1.11,3.55-3.43,5.33-6.98,5.33c-1.77,0-4.65-0.31-8.64-0.94c-13.06-2.3-25.13-3.45-36.21-3.45
	c-9.3,0-15.67,0.99-19.1,2.98c-3.43,1.98-5.15,5.07-5.15,9.24c0,3.97,1.22,7,3.65,9.09c2.44,2.09,7.86,4.07,16.28,5.95l22.59,5.33
	C1756.58,709.22,1767.87,714.44,1774.29,721.33z M1794.88,284.89c-6.04-8.72-9.29-22.2-9.29-22.2s-3.24,13.48-9.29,22.2
	c-8.28,9.26-15.86,11.87-15.86,11.87s11.14,5.19,15.39,11.14c6.73,8.96,9.76,23.27,9.76,23.27s3.03-14.31,9.76-23.27
	c4.24-5.96,15.39-11.14,15.39-11.14S1803.17,294.15,1794.88,284.89z"/>
<g>
</g>
<g>
</g>
<g>
</g>
<g>
</g>
<g>
</g>
<g>
</g>
</svg>
